<?xml version="1.0"?>
<svg xmlns="http://www.w3.org/2000/svg" version="1.2" baseProfile="tiny" width="800" height="493" viewBox="0 0 800 493" stroke-linecap="round" stroke-linejoin="round">
<g id="us_states_albers" font-family="sans-serif" font-size="12" text-anchor="middle">
<text y="0" x="0" transform="translate(513.1728 357.7837)" class="g-state-name" id="g-state-MS">Miss.</text>
<text y="0" x="0" transform="translate(703.6777 275.8383)" class="g-state-name" id="g-state-NC">N.C.</text>
<text y="0" x="0" transform="translate(383.2627 302.9376)" class="g-state-name" id="g-state-OK">Okla.</text>
<text y="0" x="0" transform="translate(687.2987 232.8571)" class="g-state-name" id="g-state-VA">Va.</text>
<text y="0" x="0" transform="translate(651.855 214.0557)" class="g-state-name" id="g-state-WV">W.V.</text>
<text y="0" x="0" transform="translate(461.1905 378.2391)" class="g-state-name" id="g-state-LA">La.</text>
<text y="0" x="0" transform="translate(574.0281 131.732)" class="g-state-name" id="g-state-MI">Mich.</text>
<text y="0" x="0" transform="translate(777.2244 106.2394)" class="g-state-name" id="g-state-MA">Mass.</text>
<text y="0" x="0" transform="translate(111.9317 99.2707)" class="g-state-name" id="g-state-ID">Idaho</text>
<text y="0" x="0" transform="translate(668.8597 429.8484)" class="g-state-name" id="g-state-FL">Fla.</text>
<text y="0" x="0" transform="translate(339.6691 171.7918)" class="g-state-name" id="g-state-NE">Neb.</text>
<text y="0" x="0" transform="translate(52.1268 1)" class="g-state-name" id="g-state-WA">Wash.</text>
<text y="0" x="0" transform="translate(224.0383 314.6098)" class="g-state-name" id="g-state-NM">N.M.</text>
<g/>
<text y="0" x="0" transform="translate(335.5782 107.6681)" class="g-state-name" id="g-state-SD">S.D.</text>
<text y="0" x="0" transform="translate(351.3076 393.8642)" class="g-state-name" id="g-state-TX">Tex.</text>
<text y="0" x="0" transform="translate(1 228.1855)" class="g-state-name" id="g-state-CA">Calif.</text>
<text y="0" x="0" transform="translate(564.9507 352.7774)" class="g-state-name" id="g-state-AL">Ala.</text>
<text y="0" x="0" transform="translate(629.0685 352.7907)" class="g-state-name" id="g-state-GA">Ga.</text>
<text y="0" x="0" transform="translate(691.469 158.7925)" class="g-state-name" id="g-state-PA">Pa.</text>
<text y="0" x="0" transform="translate(458.1687 242.1001)" class="g-state-name" id="g-state-MO">Mo.</text>
<text y="0" x="0" transform="translate(242.6791 219.0769)" class="g-state-name" id="g-state-CO">Colo.</text>
<text y="0" x="0" transform="translate(144.4006 203.1752)" class="g-state-name" id="g-state-UT">Utah</text>
<text y="0" x="0" transform="translate(566.2618 287.167)" class="g-state-name" id="g-state-TN">Tenn.</text>
<text y="0" x="0" transform="translate(220.2221 129.7218)" class="g-state-name" id="g-state-WY">Wy.</text>
<text y="0" x="0" transform="translate(727.7795 103.3274)" class="g-state-name" id="g-state-NY">N.Y.</text>
<text y="0" x="0" transform="translate(360.6165 237.2113)" class="g-state-name" id="g-state-KS">Kan.</text>
<text y="0" x="0" transform="translate(41.517 426.4659)" class="g-state-name" id="g-state-AK">Alaska</text>
<text y="0" x="0" transform="translate(62.622 179.3027)" class="g-state-name" id="g-state-NV">Nev.</text>
<text y="0" x="0" transform="translate(508.2373 197.4407)" class="g-state-name" id="g-state-IL">Ill.</text>
<text y="0" x="0" transform="translate(754.2695 74.3107)" class="g-state-name" id="g-state-VT">Vt.</text>
<text y="0" x="0" transform="translate(200.3574 40.7322)" class="g-state-name" id="g-state-MT">Mont.</text>
<text y="0" x="0" transform="translate(439.8556 160.8438)" class="g-state-name" id="g-state-IA">Iowa</text>
<text y="0" x="0" transform="translate(669.2433 317.0454)" class="g-state-name" id="g-state-SC">S.C.</text>
<text y="0" x="0" transform="translate(773.7425 80.7756)" class="g-state-name" id="g-state-NH">N.H.</text>
<text y="0" x="0" transform="translate(126.9678 305.2961)" class="g-state-name" id="g-state-AZ">Ariz.</text>
<text y="0" x="0" transform="translate(712.43 197.6599)" class="g-state-name" id="g-state-DC">D.C.</text>
<g/>
<g/>
<text y="0" x="0" transform="translate(743.2963 175.9998)" class="g-state-name" id="g-state-NJ">N.J.</text>
<text y="0" x="0" transform="translate(711.9503 187.9917)" class="g-state-name" id="g-state-MD">Md.</text>
<text y="0" x="0" transform="translate(799 34.152)" class="g-state-name" id="g-state-ME">Maine</text>
<text y="0" x="0" transform="translate(227.5342 491.6012)" class="g-state-name" id="g-state-HI">Hawaii</text>
<text y="0" x="0" transform="translate(738.8404 196.5869)" class="g-state-name" id="g-state-DE">Del.</text>
<g/>
<g/>
<text y="0" x="0" transform="translate(784.4286 117.2629)" class="g-state-name" id="g-state-RI">R.I.</text>
<text y="0" x="0" transform="translate(594.6833 242.4998)" class="g-state-name" id="g-state-KY">Ky.</text>
<text y="0" x="0" transform="translate(613.2472 187.9547)" class="g-state-name" id="g-state-OH">Ohio</text>
<text y="0" x="0" transform="translate(492.4183 97.581)" class="g-state-name" id="g-state-WI">Wis.</text>
<text y="0" x="0" transform="translate(25.9716 74.201)" class="g-state-name" id="g-state-OR">Ore.</text>
<text y="0" x="0" transform="translate(334.9462 43.4653)" class="g-state-name" id="g-state-ND">N.D.</text>
<text y="0" x="0" transform="translate(461.5254 312.4435)" class="g-state-name" id="g-state-AR">Ark.</text>
<text y="0" x="0" transform="translate(560.7132 199.8086)" class="g-state-name" id="g-state-IN">Ind.</text>
<text y="0" x="0" transform="translate(421.6576 64.1449)" class="g-state-name" id="g-state-MN">Minn.</text>
<text y="0" x="0" transform="translate(767.1102 124.7703)" class="g-state-name" id="g-state-CT">Conn.</text>
</g>
</svg>